<svg width="20" height="20" viewBox="0 0 20 20" fill="none" xmlns="http://www.w3.org/2000/svg">
<mask id="mask0_3407_865" style="mask-type:alpha" maskUnits="userSpaceOnUse" x="0" y="0" width="20" height="20">
<rect width="20" height="20" fill="#D9D9D9"/>
</mask>
<g mask="url(#mask0_3407_865)">
<path d="M14 16C14.1333 16 14.25 15.95 14.35 15.85C14.45 15.75 14.5 15.6333 14.5 15.5V14.5C14.5 14.3667 14.45 14.25 14.35 14.15C14.25 14.05 14.1333 14 14 14C13.8667 14 13.75 14.05 13.65 14.15C13.55 14.25 13.5 14.3667 13.5 14.5V15.5C13.5 15.6333 13.55 15.75 13.65 15.85C13.75 15.95 13.8667 16 14 16ZM13.9896 13C14.1354 13 14.2569 12.9549 14.3542 12.8646C14.4514 12.7743 14.5 12.6562 14.5 12.5104C14.5 12.3646 14.45 12.2431 14.35 12.1458C14.25 12.0486 14.1333 12 14 12C13.8472 12 13.7257 12.05 13.6354 12.15C13.5451 12.25 13.5 12.3667 13.5 12.5C13.5 12.6528 13.5451 12.7743 13.6354 12.8646C13.7257 12.9549 13.8438 13 13.9896 13ZM6.75 12H8.75C8.9625 12 9.14062 11.9285 9.28438 11.7856C9.42813 11.6427 9.5 11.4656 9.5 11.2544C9.5 11.0431 9.42813 10.8646 9.28438 10.7188C9.14062 10.5729 8.9625 10.5 8.75 10.5H6.75C6.5375 10.5 6.35938 10.5715 6.21563 10.7144C6.07188 10.8573 6 11.0344 6 11.2456C6 11.4569 6.07188 11.6354 6.21563 11.7812C6.35938 11.9271 6.5375 12 6.75 12ZM6.75 15H7.75C7.9625 15 8.14062 14.9285 8.28438 14.7856C8.42813 14.6427 8.5 14.4656 8.5 14.2544C8.5 14.0431 8.42813 13.8646 8.28438 13.7188C8.14062 13.5729 7.9625 13.5 7.75 13.5H6.75C6.5375 13.5 6.35938 13.5715 6.21563 13.7144C6.07188 13.8573 6 14.0344 6 14.2456C6 14.4569 6.07188 14.6354 6.21563 14.7812C6.35938 14.9271 6.5375 15 6.75 15ZM4.50833 18C4.08611 18 3.72917 17.8531 3.4375 17.5594C3.14583 17.2656 3 16.9125 3 16.5V3.5C3 3.0875 3.14687 2.73438 3.44062 2.44063C3.73437 2.14688 4.0875 2 4.5 2H10.375C10.5725 2 10.7608 2.03472 10.9398 2.10417C11.1188 2.17361 11.2847 2.28472 11.4375 2.4375L14.5625 5.5625C14.7153 5.71528 14.8264 5.88118 14.8958 6.06021C14.9653 6.23924 15 6.4275 15 6.625V7.77083C15 7.97736 14.9285 8.15056 14.7856 8.29042C14.6427 8.43014 14.4656 8.5 14.2544 8.5C14.0431 8.5 13.8646 8.42813 13.7188 8.28438C13.5729 8.14063 13.5 7.9625 13.5 7.75V7H10.75C10.5375 7 10.3594 6.92813 10.2156 6.78438C10.0719 6.64063 10 6.4625 10 6.25V3.5H4.5V16.5H8.75C8.9625 16.5 9.14062 16.5715 9.28438 16.7144C9.42813 16.8573 9.5 17.0344 9.5 17.2456C9.5 17.4569 9.42813 17.6354 9.28438 17.7812C9.14062 17.9271 8.9625 18 8.75 18H4.50833ZM14.0048 10C15.1127 10 16.0556 10.3905 16.8333 11.1715C17.6111 11.9523 18 12.8967 18 14.0048C18 15.1127 17.6095 16.0556 16.8285 16.8333C16.0477 17.6111 15.1033 18 13.9952 18C12.8873 18 11.9444 17.6095 11.1667 16.8285C10.3889 16.0477 10 15.1033 10 13.9952C10 12.8873 10.3905 11.9444 11.1715 11.1667C11.9523 10.3889 12.8967 10 14.0048 10Z" fill="#01988C"/>
</g>
</svg>
