<svg width="312" height="243" viewBox="0 0 312 243" fill="none" xmlns="http://www.w3.org/2000/svg">
<rect width="312" height="243" rx="16" fill="#E7F4D7"/>
<path d="M84.5308 121.526C84.5308 82.7209 115.989 51.263 154.794 51.263C193.599 51.263 225.057 82.7208 225.057 121.526L225.057 191.789L84.5308 191.789L84.5308 121.526Z" fill="#6B9539"/>
<g clip-path="url(#clip0_3445_1403)">
<path d="M186.916 133.305C187.406 133.305 187.875 133.499 188.221 133.844C188.567 134.189 188.761 134.657 188.761 135.145V152.947H224.151C224.641 152.947 225.11 153.141 225.456 153.486C225.802 153.831 225.996 154.299 225.996 154.787C225.996 155.275 225.802 155.743 225.456 156.088C225.11 156.433 224.641 156.627 224.151 156.627H188.761V218.189H185.071V135.145C185.071 134.657 185.266 134.189 185.612 133.844C185.958 133.499 186.427 133.305 186.916 133.305Z" fill="white"/>
<path d="M88.4301 217.771L81.7774 217.954C80.7669 218.006 79.7671 217.727 78.9308 217.158C78.2084 216.622 77.877 215.898 78.0223 215.17L79.3314 208.608C79.5781 207.37 81.0991 206.434 82.9475 206.384L86.6216 206.282C88.47 206.231 90.0404 207.082 90.3553 208.305L92.0255 214.785C92.2108 215.503 91.92 216.245 91.2283 216.82C90.4248 217.433 89.442 217.767 88.4301 217.771Z" fill="#3F3D56"/>
<path d="M128.895 217.584L122.243 217.767C121.232 217.819 120.232 217.539 119.396 216.971C118.674 216.435 118.342 215.71 118.488 214.983L119.797 208.421C120.043 207.183 121.564 206.247 123.413 206.196L127.087 206.095C128.935 206.044 130.506 206.895 130.821 208.117L132.491 214.597C132.676 215.316 132.385 216.057 131.694 216.632C130.89 217.246 129.907 217.58 128.895 217.584Z" fill="#3F3D56"/>
<path d="M65.3291 161.875C65.0252 161.745 64.7751 161.514 64.6202 161.223C64.4653 160.931 64.4148 160.595 64.4772 160.271C64.5396 159.947 64.7111 159.654 64.9633 159.44C65.2155 159.226 65.5333 159.105 65.8642 159.096L141.497 157.013C141.688 157.007 141.878 157.04 142.056 157.108C142.234 157.175 142.397 157.278 142.536 157.408C142.675 157.539 142.786 157.696 142.864 157.869C142.942 158.043 142.984 158.23 142.99 158.421C143 158.805 142.857 159.177 142.592 159.456C142.328 159.735 141.963 159.898 141.578 159.909L65.9444 161.992C65.7332 161.998 65.5232 161.959 65.3291 161.875Z" fill="#3F3D56"/>
<path d="M93.2416 136.902L71.6221 137.498L73.6377 210.301L95.2572 209.705L93.2416 136.902Z" fill="white"/>
<path d="M93.7902 135.594L89.6343 146.886L89.638 198.33L94.7019 199.778L93.7902 135.594Z" fill="#CCCCCC"/>
<path d="M82.3195 117.876C78.2748 117.991 75.1888 124.972 75.263 127.696L75.3996 132.629L90.045 132.225L89.9085 127.293C89.8318 124.569 86.3643 117.768 82.3195 117.876Z" fill="#3F3D56"/>
<path d="M71.9028 167.647C71.1471 167.667 70.4143 167.387 69.8652 166.869C69.3161 166.351 68.9956 165.637 68.9738 164.883L68.7516 156.856C68.7307 156.102 69.011 155.371 69.5307 154.823C70.0505 154.275 70.7672 153.956 71.5231 153.935C72.2791 153.914 73.0123 154.194 73.5616 154.712C74.1109 155.23 74.4312 155.945 74.4521 156.699L74.6743 164.726C74.6943 165.48 74.4137 166.21 73.8941 166.758C73.3746 167.306 72.6584 167.625 71.9028 167.647Z" fill="#3F3D56"/>
<path d="M77.3889 137.67L77.2866 132.366L78.6814 132.331L78.7837 137.619L80.0481 214.687L78.6529 214.725" fill="#3F3D56"/>
<path d="M95.7206 150.075L70.6495 150.766C68.2549 147.853 68.0374 135.445 73.0348 133.083L74.9946 129.764L90.1042 129.028L91.8701 132.523C94.356 134.633 95.6378 146.964 95.7206 150.075Z" fill="white"/>
<path d="M86.2842 144.124L79.9442 144.299C78.7208 144.332 77.6806 142.749 77.6258 140.77C77.571 138.791 78.522 137.153 79.7454 137.119L86.0855 136.945C87.3089 136.911 88.3491 138.494 88.4039 140.473C88.4587 142.452 87.5077 144.09 86.2842 144.124Z" fill="#FF7A11"/>
<path d="M74.0072 179.922L60.9383 189.129L58.6553 209.89L73.9008 204.809L74.0072 179.922Z" fill="white"/>
<path d="M134.975 136.011L113.355 136.606L115.371 209.409L136.991 208.813L134.975 136.011Z" fill="white"/>
<path d="M113.874 135.837L118.322 147.018L119.657 198.445L114.632 200.023L113.874 135.837Z" fill="#CCCCCC"/>
<path d="M145.787 115.798C147.352 115.798 148.62 114.101 148.62 112.008C148.62 109.915 147.352 108.218 145.787 108.218C144.222 108.218 142.953 109.915 142.953 112.008C142.953 114.101 144.222 115.798 145.787 115.798Z" fill="white"/>
<path d="M123.631 116.996C119.586 117.111 116.5 124.092 116.575 126.816L116.711 131.749L131.357 131.345L131.22 126.413C131.143 123.689 127.676 116.888 123.631 116.996Z" fill="#3F3D56"/>
<path d="M127.819 139.331L127.716 134.026L129.111 133.991L129.213 139.279L130.478 216.347L129.083 216.386" fill="#3F3D56"/>
<path d="M137.032 149.195L111.961 149.886C111.524 147.25 112.09 134.953 114.347 132.203L116.306 128.884L131.416 128.148L133.182 131.643C137.643 132.006 139.203 144.09 137.032 149.195Z" fill="white"/>
<path d="M127.626 144.352L121.286 144.526C120.063 144.56 119.016 142.728 118.953 140.444C118.889 138.159 119.834 136.273 121.057 136.239L127.397 136.065C128.62 136.031 129.667 137.863 129.731 140.147C129.794 142.432 128.85 144.318 127.626 144.352Z" fill="#FF7A11"/>
<path d="M136.043 174.6L148.677 184.392L150.008 205.236L135.011 199.466L136.043 174.6Z" fill="white"/>
<path d="M73.4431 93.6217C72.1476 94.4827 70.8217 92.4336 72.1421 91.6109C73.4376 90.75 74.7635 92.7991 73.4431 93.6217Z" fill="white"/>
<path d="M121.412 26.372C120.117 27.2329 118.791 25.1838 120.111 24.3611C121.407 23.5002 122.733 25.5493 121.412 26.372Z" fill="white"/>
<path d="M149.684 66.244L148.86 66.0637L149.04 65.2413L148.491 65.1212L148.31 65.9435L147.486 65.7635L147.365 66.3116L148.189 66.4919L148.009 67.314L148.558 67.4341L148.739 66.6117L149.563 66.792L149.684 66.244Z" fill="white"/>
<path d="M100.395 30.5747C96.3505 30.6893 93.2645 37.6708 93.3387 40.3951L93.4752 45.3273L108.121 44.924L107.984 39.9918C107.907 37.2674 104.44 30.4665 100.395 30.5747Z" fill="#3F3D56"/>
<path d="M109.116 217.341L102.463 217.524C101.452 217.576 100.453 217.297 99.6164 216.729C98.894 216.193 98.5625 215.468 98.7078 214.74L100.017 208.178C100.264 206.94 101.785 206.005 103.633 205.954L107.307 205.852C109.156 205.802 110.726 206.652 111.041 207.875L112.711 214.355C112.896 215.073 112.606 215.815 111.914 216.39C111.11 217.003 110.128 217.337 109.116 217.341Z" fill="#3F3D56"/>
<path d="M112.082 61.9732L90.4629 62.5686L94.5372 209.731L116.157 209.136L112.082 61.9732Z" fill="white"/>
<path d="M103.431 133.209L103.329 127.904L104.724 127.87L104.826 133.157L106.091 210.225L104.695 210.264" fill="#3F3D56"/>
<path d="M116.339 75.4417L87.0452 76.2485C86.5345 73.1692 87.1952 58.8003 89.8323 55.5877L90.555 51.7528L110.781 51.1957L111.84 54.9332C114.744 57.3984 116.242 71.8063 116.339 75.4417Z" fill="white"/>
<path d="M111.421 51.6482L90.5485 52.2231C89.7781 52.2443 89.142 51.8408 89.1277 51.3219C89.1257 51.2472 89.1367 51.1727 89.1601 51.1016L92.4022 41.1396C92.541 40.713 93.0937 40.3997 93.7387 40.3819L107.581 40.0007C108.226 39.9829 108.795 40.2653 108.957 40.6836L112.746 50.4521C112.939 50.9517 112.492 51.4716 111.746 51.6133C111.639 51.6336 111.53 51.6453 111.421 51.6482Z" fill="white"/>
<path d="M92.6074 132.532C92.419 132.452 92.241 132.349 92.0771 132.226C91.8423 132.062 91.6483 131.846 91.51 131.595C91.3717 131.345 91.2927 131.066 91.2791 130.78L90.5207 103.386C90.4894 102.252 91.6026 101.298 93.0022 101.259L111.688 100.744C113.088 100.706 114.252 101.597 114.283 102.731L115.042 130.126C115.044 130.412 114.98 130.694 114.856 130.952C114.732 131.21 114.55 131.436 114.325 131.613C113.826 132.019 113.204 132.244 112.56 132.252L93.8746 132.767C93.4401 132.781 93.0077 132.701 92.6074 132.532Z" fill="#3F3D56"/>
<path d="M104.567 49.8852L98.2269 50.0598C97.0035 50.0935 95.969 48.7149 95.9212 46.987C95.8733 45.2591 96.83 43.8256 98.0534 43.7919L104.393 43.6173C105.617 43.5836 106.651 44.9623 106.699 46.6901C106.747 48.418 105.79 49.8515 104.567 49.8852Z" fill="#FF7A11"/>
<path d="M254.431 212.362H247.051V158.871C253.224 158.43 257.864 156.544 257.864 154.285C257.864 151.698 251.781 149.601 244.278 149.601C236.775 149.601 230.692 151.698 230.692 154.285C230.692 156.566 235.422 158.465 241.684 158.883V212.362H234.304C233.593 212.362 232.91 212.644 232.407 213.146C231.903 213.648 231.621 214.329 231.621 215.039C231.621 215.749 231.903 216.43 232.407 216.932C232.91 217.434 233.593 217.716 234.304 217.716H254.431C255.143 217.716 255.826 217.434 256.329 216.932C256.832 216.43 257.115 215.749 257.115 215.039C257.115 214.329 256.832 213.648 256.329 213.146C255.826 212.644 255.143 212.362 254.431 212.362Z" fill="white"/>
<path d="M239.617 185.206L237.193 187.841L225.85 179.769L229.428 175.88L239.617 185.206Z" fill="#A0616A"/>
<path d="M233.419 192.161C233.443 192.75 233.584 193.328 233.833 193.863C234.083 194.398 234.436 194.877 234.873 195.275L234.98 195.374L238.159 191.918L242.795 186.878L239.373 183.744L238.755 184.418L238.69 184.487L235.61 185.94L234.958 186.249L234.846 186.301L234.6 188.933V188.935C234.199 189.368 233.887 189.876 233.685 190.43C233.482 190.983 233.391 191.572 233.419 192.161Z" fill="#2F2E41"/>
<path d="M252.177 211.491L248.746 212.531L243.094 199.827L248.157 198.293L252.177 211.491Z" fill="#A0616A"/>
<path d="M242.957 217.754L242.999 217.895L254.06 214.543L252.71 210.11L251.837 210.375L251.745 210.402L247.632 210.026L247.511 210.016L245.955 212.157C244.813 212.503 243.856 213.287 243.294 214.336C242.731 215.386 242.61 216.615 242.957 217.754Z" fill="#2F2E41"/>
<path d="M223.888 144.979C223.888 144.979 201.985 166.071 215.832 172.6H220.111C221.042 169.584 222.472 166.745 224.342 164.199C224.746 163.672 226.261 163.779 226.682 163.265C229.25 160.124 232.035 157.427 233.958 157.534L233.498 172.107L232.753 177.306C232.363 179.993 243.396 203.457 243.396 203.457L250.332 200.738C250.332 200.738 243.106 181.412 243.021 178.626L248.812 147.992L223.888 144.979Z" fill="#2F2E41"/>
<path d="M222.062 146.019C222.173 146.178 222.319 146.31 222.489 146.405C222.768 146.563 223.07 146.675 223.385 146.737C228.316 147.853 244.426 150.168 248.608 149.064C249.122 148.93 249.457 148.742 249.566 148.494C249.916 147.712 249.871 144.408 249.665 140.417C249.628 139.67 248.802 138.86 248.752 138.078C248.717 137.491 249.459 136.939 249.42 136.343C249.147 132.308 248.794 128.196 248.558 125.597C248.409 123.926 248.308 122.881 248.308 122.881L250.852 106.883L250.732 106.687L250.598 106.62L242.396 102.571L241.949 101.432C241.82 101.104 241.595 100.822 241.303 100.623C241.012 100.424 240.667 100.317 240.314 100.316L234.911 100.293C234.63 100.292 234.354 100.357 234.104 100.484C233.854 100.61 233.638 100.794 233.473 101.021L232.009 103.043L222.33 109.232L222.367 109.346L226.909 123.131L226.931 124.206V124.208L227.1 132.847L226.631 134.018L227.16 135.939C227.16 135.939 226.916 138.184 225.613 139.853C224.432 141.368 222.928 142.947 222.248 144.229V144.232C221.871 144.94 221.744 145.554 222.062 146.019Z" fill="#FF7A11"/>
<path d="M214.78 171.347L215.951 172.822C215.951 172.822 226.718 180.336 227.088 181.038L228.79 182.644L232.907 178.254L230.766 175.577C229.052 173.435 226.838 171.745 224.318 170.654L221.037 167.75L214.78 171.347Z" fill="#2F2E41"/>
<path d="M253.565 151.002L251.604 132.073L251.086 124.282L256.575 123.292C256.575 123.292 256.357 128.863 257.076 132.006C257.786 135.107 257.17 150.587 257.126 151C257.529 151.36 257.813 151.833 257.941 152.357C258.069 152.881 258.034 153.431 257.841 153.935C257.648 154.439 257.307 154.873 256.861 155.179C256.416 155.485 255.888 155.649 255.348 155.649C254.807 155.649 254.279 155.486 253.834 155.18C253.388 154.874 253.046 154.441 252.853 153.938C252.659 153.434 252.624 152.884 252.751 152.359C252.878 151.835 253.162 151.362 253.565 151.002Z" fill="#A0616A"/>
<path d="M247.029 122.334L248.558 125.597L249.092 126.733L250.529 134.239L251.246 134.999L251.864 137.452L252.154 137.392L257.391 136.31L258.917 135.996C259.262 135.424 259.397 134.752 259.301 134.092C259.205 133.432 258.884 132.825 258.391 132.375C258.287 132.281 258.2 132.189 258.203 132.102C258.29 126.882 257.969 117.349 255.078 113.425C254.16 112.18 253.609 110.94 252.807 110.074C252.805 110.071 252.805 110.069 252.802 110.069L250.851 106.883L250.732 106.687L250.598 106.62L247.029 122.334Z" fill="#FF7A11"/>
<path d="M238.035 98.9524C242.005 98.9524 245.224 95.7422 245.224 91.7822C245.224 87.8222 242.005 84.612 238.035 84.612C234.064 84.612 230.846 87.8222 230.846 91.7822C230.846 95.7422 234.064 98.9524 238.035 98.9524Z" fill="#A0616A"/>
<path d="M246.571 90.2394C246.781 89.0345 246.945 87.4724 246.342 86.0838C245.832 84.9152 244.557 83.8196 243.14 83.9674C243.207 83.7036 243.2 83.4263 243.119 83.1665C243.037 82.9067 242.886 82.6744 242.68 82.4956C242.218 82.1342 241.681 81.882 241.107 81.7581C239.775 81.3676 238.395 80.9627 236.971 80.9552C235.372 80.9465 233.955 81.4929 233.086 82.4562L233.065 82.4873L232.804 83.1075C232.769 83.1907 232.717 83.2654 232.65 83.3265C232.584 83.3875 232.505 83.4335 232.419 83.4613C232.333 83.4896 232.241 83.4986 232.151 83.4876C232.061 83.4766 231.975 83.4459 231.898 83.3976C231.814 83.3459 231.717 83.3171 231.618 83.3139C231.519 83.3107 231.421 83.3332 231.334 83.3794C231.247 83.4255 231.173 83.4937 231.12 83.577C231.067 83.6603 231.037 83.756 231.032 83.8546L231.018 84.1192L230.645 83.9709C230.552 83.9332 230.45 83.9211 230.35 83.9358C230.25 83.9506 230.156 83.9916 230.077 84.0547C229.999 84.1178 229.939 84.2007 229.903 84.2948C229.867 84.3889 229.857 84.4909 229.874 84.5901L229.924 84.9049C229.844 84.8904 229.761 84.8921 229.682 84.91C229.602 84.9279 229.527 84.9615 229.461 85.009C229.366 85.0784 229.296 85.1761 229.26 85.288C229.225 85.3998 229.226 85.52 229.263 85.6313C229.553 86.4549 230.047 87.1916 230.7 87.7724C230.993 88.0366 231.322 88.2593 231.676 88.434C231.749 88.471 231.826 88.5061 231.906 88.5392C234.77 89.7644 237.836 90.457 240.95 90.5828C240.656 91.1431 240.466 91.7521 240.389 92.3801C240.346 92.7365 240.402 93.0977 240.551 93.4245C240.7 93.7514 240.935 94.0314 241.232 94.2342C241.361 94.3076 241.496 94.3694 241.636 94.4187C241.77 94.4679 241.899 94.5277 242.023 94.5975C242.205 94.7073 242.355 94.863 242.457 95.0489C242.559 95.2348 242.61 95.4443 242.605 95.6563C242.6 95.8683 242.539 96.0751 242.428 96.256C242.317 96.4369 242.16 96.5853 241.973 96.6863C241.973 96.6863 242.508 97.3377 242.594 97.3267C242.935 97.2496 243.243 97.0678 243.475 96.8071C245.032 95.2993 246.073 93.0909 246.571 90.2394Z" fill="#2F2E41"/>
<path d="M135.511 165.869C134.755 165.889 134.022 165.609 133.473 165.091C132.924 164.573 132.603 163.858 132.582 163.105L132.359 155.078C132.339 154.325 132.62 153.594 133.14 153.047C133.66 152.5 134.376 152.181 135.131 152.16C135.886 152.139 136.619 152.418 137.168 152.936C137.717 153.454 138.038 154.168 138.06 154.921L138.282 162.948C138.302 163.701 138.022 164.432 137.502 164.98C136.982 165.528 136.266 165.847 135.511 165.869Z" fill="#3F3D56"/>
<path d="M215.047 147.419C212.56 147.37 199.201 146.987 197.01 147.082C196.886 146.649 192.733 151.957 192.632 151.99C192.565 152.061 192.516 152.147 192.489 152.241C192.462 152.335 192.459 152.434 192.479 152.529C192.498 152.625 192.541 152.714 192.603 152.79C192.665 152.865 192.745 152.925 192.835 152.963C193.079 153.111 214.616 152.713 214.877 152.765C214.99 152.763 215.1 152.73 215.195 152.668C215.289 152.607 215.365 152.52 215.412 152.418L215.556 152.096C215.571 151.546 215.751 148.734 215.589 148.254C215.629 148.164 215.646 148.065 215.638 147.967C215.63 147.868 215.598 147.774 215.544 147.691C215.49 147.608 215.417 147.54 215.33 147.493C215.243 147.445 215.146 147.42 215.047 147.419Z" fill="white"/>
<path opacity="0.17" d="M215.556 152.096C215.429 152.399 215.268 152.779 214.877 152.765L193.062 153.01C192.959 153.008 192.858 152.981 192.769 152.929C192.679 152.878 192.605 152.805 192.552 152.716C192.499 152.628 192.47 152.527 192.467 152.424C192.465 152.321 192.489 152.22 192.537 152.129L215.556 152.096Z" fill="black"/>
<path d="M197.112 147.016C196.877 146.611 191.045 117.829 190.558 117.588L186.576 112.729L186.22 112.463C185.725 112.191 184.538 112.375 184.645 113.129C185.58 117.602 191.597 143.079 191.729 147.051L192.454 152.112C192.466 152.198 192.497 152.28 192.544 152.354C192.591 152.427 192.653 152.49 192.725 152.538C192.798 152.587 192.88 152.619 192.966 152.634C193.052 152.648 193.14 152.645 193.225 152.624C193.433 152.601 193.631 152.525 193.8 152.403C193.969 152.281 194.104 152.117 194.19 151.928C194.244 151.749 197.384 147.12 197.112 147.016Z" fill="white"/>
<path opacity="0.17" d="M186.575 112.73L194.191 151.929C193.937 152.572 192.745 153.022 192.467 152.179C192.462 152.178 184.654 113.153 184.646 113.129C184.563 112.19 186.119 112.16 186.575 112.73Z" fill="black"/>
<path d="M186.805 114.333L190.672 119.71L195.014 140.275L192.996 142.03L186.805 114.333Z" fill="#14B8AA"/>
<path d="M212.55 150.192L213.62 150.236C213.637 149.923 213.689 149.613 213.775 149.312C213.936 148.549 214.08 147.643 213.412 147.646C212.96 147.603 212.805 148.175 212.725 148.797C212.704 149.266 212.646 149.733 212.55 150.192Z" fill="#2F2E41"/>
<path d="M206.412 148.757L207.133 148.784L207.482 148.797C207.475 148.416 207.653 147.629 207.22 147.435C207.151 147.406 207.077 147.391 207.002 147.392C206.596 147.368 206.475 147.676 206.438 148.031C206.415 148.245 206.425 148.472 206.418 148.65C206.418 148.687 206.415 148.723 206.412 148.757Z" fill="#2F2E41"/>
<path d="M204.275 148.67L204.999 148.7L205.345 148.713C205.338 148.275 205.57 147.318 204.865 147.305C204.215 147.268 204.298 148.094 204.282 148.563C204.282 148.6 204.278 148.636 204.275 148.67Z" fill="#2F2E41"/>
<path d="M202.138 148.586L202.859 148.613L203.208 148.627C203.202 148.192 203.433 147.235 202.729 147.221C202.078 147.181 202.162 148.008 202.145 148.479C202.145 148.516 202.142 148.553 202.138 148.586Z" fill="#2F2E41"/>
<path d="M200.001 148.499L200.726 148.529L201.072 148.543C201.065 148.104 201.296 147.151 200.592 147.134C199.941 147.097 200.025 147.924 200.008 148.392C200.008 148.429 200.005 148.466 200.001 148.499Z" fill="#2F2E41"/>
<path d="M197.865 148.416L198.586 148.442L198.935 148.456C198.928 148.054 199.123 147.214 198.606 147.071H198.603C198.555 147.056 198.505 147.05 198.455 147.051C198.394 147.045 198.333 147.051 198.274 147.067H198.271C197.821 147.184 197.885 147.887 197.871 148.309C197.871 148.345 197.868 148.382 197.865 148.416Z" fill="#2F2E41"/>
<path d="M210.394 148.188L211.464 148.232C211.464 148.191 211.464 148.148 211.467 148.098C211.493 147.843 211.498 147.587 211.48 147.332C211.444 147.051 211.323 146.83 210.984 146.823C210.638 146.803 210.501 147.024 210.447 147.308C210.435 147.357 210.426 147.406 210.42 147.455V147.459C210.394 147.72 210.41 148.001 210.394 148.188Z" fill="#2F2E41"/>
<path d="M208.257 148.101L209.327 148.145C209.35 147.857 209.356 147.569 209.347 147.281C209.317 146.987 209.199 146.746 208.847 146.739C208.492 146.716 208.354 146.957 208.3 147.255C208.25 147.542 208.277 147.887 208.257 148.101Z" fill="#2F2E41"/>
<path d="M206.12 148.017L206.439 148.031L207.19 148.061C207.187 147.9 207.217 147.666 207.22 147.435C207.223 147.366 207.221 147.297 207.214 147.228C207.187 146.917 207.076 146.659 206.71 146.652C206.338 146.632 206.207 146.89 206.16 147.204C206.113 147.485 206.14 147.81 206.12 148.017Z" fill="#2F2E41"/>
<path d="M210.414 150.109L211.484 150.149C211.48 149.714 211.708 148.757 211.004 148.744C210.299 148.7 210.454 149.67 210.414 150.109Z" fill="#2F2E41"/>
<path d="M208.277 150.022L209.347 150.065C209.344 149.627 209.572 148.67 208.867 148.656C208.163 148.616 208.317 149.587 208.277 150.022Z" fill="#2F2E41"/>
<path d="M206.14 149.938L207.21 149.978C207.207 149.667 207.324 149.091 207.133 148.784C207.091 148.715 207.032 148.66 206.961 148.623C206.89 148.586 206.81 148.568 206.731 148.573C206.621 148.561 206.51 148.588 206.419 148.65C206.076 148.874 206.174 149.583 206.14 149.938Z" fill="#2F2E41"/>
<path d="M204.003 149.851L205.074 149.894C205.07 149.583 205.184 149.011 205 148.7C204.958 148.631 204.898 148.574 204.827 148.537C204.755 148.499 204.675 148.481 204.594 148.486C204.484 148.474 204.373 148.501 204.282 148.563C203.94 148.794 204.037 149.5 204.003 149.851Z" fill="#2F2E41"/>
<path d="M201.866 149.767L202.936 149.807C202.933 149.496 203.05 148.921 202.859 148.613C202.817 148.545 202.758 148.489 202.687 148.452C202.616 148.415 202.537 148.398 202.457 148.402C202.347 148.391 202.236 148.418 202.145 148.479C201.802 148.703 201.9 149.413 201.866 149.767Z" fill="#2F2E41"/>
<path d="M199.729 149.68L200.8 149.724C200.796 149.413 200.91 148.841 200.726 148.529C200.684 148.46 200.625 148.403 200.553 148.365C200.481 148.328 200.401 148.31 200.32 148.315C200.21 148.303 200.099 148.33 200.008 148.392C199.666 148.623 199.763 149.329 199.729 149.68Z" fill="#2F2E41"/>
<path d="M197.593 149.597L198.663 149.637C198.66 149.326 198.774 148.754 198.586 148.442C198.544 148.374 198.485 148.318 198.414 148.281C198.343 148.244 198.263 148.227 198.183 148.232C198.073 148.22 197.963 148.247 197.871 148.309C197.529 148.536 197.626 149.242 197.593 149.597Z" fill="#2F2E41"/>
<path d="M209.678 146.504L217.834 129.3L220.917 122.123L216.071 119.371C216.071 119.371 214.42 124.697 212.695 127.423C210.992 130.113 206.416 144.917 206.319 145.322C205.819 145.527 205.394 145.879 205.099 146.331C204.804 146.783 204.653 147.314 204.667 147.853C204.681 148.392 204.859 148.914 205.177 149.35C205.495 149.786 205.938 150.116 206.448 150.295C206.958 150.475 207.511 150.496 208.033 150.355C208.555 150.215 209.021 149.919 209.371 149.508C209.722 149.097 209.938 148.59 209.993 148.054C210.048 147.517 209.938 146.977 209.678 146.504Z" fill="#A0616A"/>
<path d="M209.628 130.575L215.796 134.287L217.195 132.178L218.127 131.699L221.983 125.095L225.392 121.631L229.896 107.271L224.036 108.148L224.028 108.151C222.984 108.703 222.05 109.69 220.77 110.561C216.736 113.303 213.257 122.188 211.6 127.142C211.573 127.223 211.461 127.28 211.332 127.335C210.717 127.597 210.212 128.063 209.902 128.653C209.591 129.243 209.495 129.922 209.628 130.575Z" fill="#FF7A11"/>
</g>
<defs>
<clipPath id="clip0_3445_1403">
<rect width="286.863" height="194.692" fill="white" transform="translate(12.5688 24.154)"/>
</clipPath>
</defs>
</svg>
